<?xml version="1.0" encoding="utf-8"?>
<!-- Generator: Adobe Illustrator 17.1.0, SVG Export Plug-In . SVG Version: 6.00 Build 0)  -->
<!DOCTYPE svg PUBLIC "-//W3C//DTD SVG 1.1//EN" "http://www.w3.org/Graphics/SVG/1.1/DTD/svg11.dtd" [
	<!ENTITY ns_extend "http://ns.adobe.com/Extensibility/1.0/">
	<!ENTITY ns_ai "http://ns.adobe.com/AdobeIllustrator/10.0/">
	<!ENTITY ns_graphs "http://ns.adobe.com/Graphs/1.0/">
	<!ENTITY ns_vars "http://ns.adobe.com/Variables/1.0/">
	<!ENTITY ns_imrep "http://ns.adobe.com/ImageReplacement/1.0/">
	<!ENTITY ns_sfw "http://ns.adobe.com/SaveForWeb/1.0/">
	<!ENTITY ns_custom "http://ns.adobe.com/GenericCustomNamespace/1.0/">
	<!ENTITY ns_adobe_xpath "http://ns.adobe.com/XPath/1.0/">
]>
<svg version="1.1" id="Ebene_1" xmlns:x="&ns_extend;" xmlns:i="&ns_ai;" xmlns:graph="&ns_graphs;"
	 xmlns="http://www.w3.org/2000/svg" xmlns:xlink="http://www.w3.org/1999/xlink" x="0px" y="0px" width="1500px" height="421px"
	 viewBox="0 0 1500 421" enable-background="new 0 0 1500 421" xml:space="preserve">
<metadata>
	<sfw  xmlns="&ns_sfw;">
		<slices></slices>
		<sliceSourceBounds  width="1293" height="212.2" x="36" y="97.3" bottomLeftOrigin="true"></sliceSourceBounds>
		<optimizationSettings>
			<targetSettings  fileFormat="PNG24Format" targetSettingsID="0">
				<PNG24Format  transparency="true" filtered="false" noMatteColor="false" matteColor="#FFFFFF" interlaced="false">
					</PNG24Format>
			</targetSettings>
		</optimizationSettings>
	</sfw>
</metadata>
<line fill="none" x1="186.8" y1="174.5" x2="186.8" y2="174.5"/>
<polygon fill="#00AEEF" points="164.2,160.2 164.2,136.2 183.8,152.8 183.8,176.8 "/>
<path fill="#00365F" d="M140.2,209c-5.2-6-12-10.5-19.5-14.2s-15.8-5.2-24.8-5.2c-12.8,0-24.8,3.8-34.5,10.5c-6,4.5-10.5,9-15,15.8
	V111.5H36v210h11.2v-24.8c3.8,6,9,11.2,15,15.8c9.8,6.8,21,10.5,34.5,10.5c9,0,17.2-1.5,24-5.2c7.5-3,13.5-8.2,19.5-13.5
	c5.3-6,9.8-12.8,12.8-21c3-8.2,4.5-16.5,4.5-26.2c0-9-1.5-18-4.5-26.2C150,221.8,145.5,215,140.2,209z M146.2,256.2
	c0,8.2-1.5,15.8-3.8,22.5s-6,12.8-9.8,17.2c-4.5,4.5-9.7,8.2-15.8,11.2c-6,2.2-12.7,3.8-20.2,3.8s-14.2-1.5-20.2-3.8
	s-11.2-6-15.8-11.2c-4.5-4.5-7.5-10.5-9.8-17.2c-2.2-6.8-3.8-14.2-3.8-22.5s1.5-15.8,3.8-22.5c2.3-6.8,6-12.8,9.8-17.2
	c4.5-4.5,9.8-8.3,15.8-11.2c6-3,12.8-3.8,19.5-3.8c7.5,0,13.5,1.5,19.5,3.8c6,3,11.2,6.7,15.8,11.2c4.5,4.5,7.5,10.5,9.8,17.2
	C144.8,241.2,146.2,248.8,146.2,256.2z"/>
<rect x="173.2" y="191" fill="#00365F" width="11.2" height="132"/>
<path fill="#00365F" d="M255.7,306.5c-3,3-6.8,4.5-12,4.5c-4.5,0-8.2-1.5-11.2-4.5s-4.5-7.5-4.5-12.8V203h33.8v-11.2H228v-43.5
	h-11.2v43.5h-18V203h18v90c0,8.2,2.2,15.8,7.5,21c5.2,5.2,12,8.2,19.5,8.2c3.8,0,7.5-0.7,10.5-2.2c3-1.5,6-3,8.2-5.3l2.2-2.2
	l-6.8-9.8L255.7,306.5z"/>
<path fill="#00AEEF" d="M361.5,261.5c-3.8-3-7.5-4.5-12-6c-4.5-1.5-8.2-3-12.8-3.8l-8.2-2.2c-3-0.8-6.8-1.5-9.8-3
	c-3-0.8-6-2.2-8.2-4.5c-2.2-1.5-4.5-3.8-6-6.7c-1.5-3-2.2-6.8-2.2-11.2c0-3.8,0.7-6.8,2.2-9.8c1.5-3,3.8-5.2,6.8-6.8s6-3,9.8-4.5
	c3.8-0.8,7.5-1.5,11.2-1.5c6,0,12,0.8,16.5,2.2c4.5,1.5,9.8,4.5,14.2,7.5l3,2.2l6.8-9l-3-1.5c-5.2-4.5-11.2-7.5-18-9.8
	c-6-2.2-12.8-3-20.2-3c-4.5,0-9.8,0.8-14.2,2.2s-9,3.8-13.5,6c-3.8,3-7.5,6.8-9.8,10.5c-2.2,4.5-3.8,9.7-3.8,15
	c0,6.7,1.5,12.8,3.8,16.5c2.2,4.5,5.2,7.5,9,10.5c3.8,2.2,7.5,4.5,11.2,6s7.5,2.2,10.5,3l7.5,2.2c3.8,0.8,7.5,2.2,11.2,3.8
	c3.8,1.5,6.8,3,9,4.5c2.2,1.5,4.5,3.8,6,6.7c1.5,3,2.2,6.8,2.2,11.2c0,3.8-0.8,7.5-3,10.5c-1.5,3-4.5,5.3-7.5,6.8
	c-3,1.5-6.8,3-10.5,3.8s-8.2,1.5-12,1.5c-7.5,0-14.2-1.5-20.2-4.5c-6.8-3-12-6.8-17.2-11.2l-0.7-2.2l-7.5,9l2.2,2.2
	c6,6,13.5,10.5,21,13.5s16.5,4.5,24.8,4.5c4.5,0,9.8-0.7,15-1.5c5.2-1.5,9.8-3,13.5-5.2c4.5-3,7.5-6,10.5-10.5
	c3-4.5,4.5-9.8,4.5-16.5s-0.8-12-3-16.5C367.5,268.2,364.5,264.5,361.5,261.5z"/>
<path fill="#00AEEF" d="M478.5,205.2c-4.5-4.5-9.8-7.5-15-10.5c-6-2.2-12-3.8-18.8-3.8c-9.8,0-18,2.2-25.5,7.5
	c-4.5,3-7.5,6-11.2,9.7V113h-11.2v210H408v-82.5c0-5.2,0.8-10.5,3-15c1.5-4.5,4.5-8.2,7.5-12c3-3,7.5-6,12-7.5c4.5-1.5,9-3,14.3-3
	s9.8,0.8,14.2,3c4.5,1.5,8.2,4.5,11.2,7.5c3,3,6,7.5,7.5,12s3,9.8,3,15V323h12v-82.5c0-6.8-1.5-13.5-3.8-19.5
	C486.8,215,483,209.8,478.5,205.2z"/>
<path fill="#00AEEF" d="M608.2,207.5c-3.8-5.2-9-9.7-15-12.8c-6-3-14.2-4.5-24-4.5c-4.5,0-9.8,0.8-17.2,1.5
	c-6.8,0.8-14.2,3-22.5,6.8l-3,1.5l4.5,10.5l3-1.5c6.8-3,13.5-5.3,19.5-6c6-0.8,11.2-1.5,15-1.5c7.5,0,13.5,0.8,18,3
	c4.5,2.2,8.2,5.3,10.5,9c3,3.8,4.5,8.2,5.2,14.2c0.8,4.5,1.5,9.7,1.5,15c-13.5-3-26.2-4.5-36.8-4.5c-17.3,0-30,3.8-39.8,10.5
	c-6,5.3-10.5,10.5-12,17.2c-1.5,6-3,11.2-3,16.5c0,3.8,0.8,7.5,1.5,12c1.5,4.5,3.8,9,6.8,13.5c3,3.8,7.5,7.5,12.8,10.5
	c5.2,3,12,4.5,20.2,4.5c3.8,0,9-0.8,13.5-1.5c4.5-0.8,9.8-2.2,14.2-4.5s9.8-4.5,13.5-8.2c3-2.2,6-5.2,8.2-8.2v20.2h11.2v-71.2
	c0-8.2-0.8-16.5-1.5-23.2C614.2,219.5,612,212.8,608.2,207.5z M606,254v11.2c0,3.8-0.7,8.2-1.5,12.8c-0.8,3.8-2.3,7.5-4.5,11.2
	c-3,3.8-6,7.5-9.8,10.5s-7.5,5.2-11.2,6.8s-8.2,3-12,3.8s-7.5,1.5-11.2,1.5c-6,0-11.2-0.8-15-3s-6.8-4.5-9-7.5s-3.8-6-4.5-9
	c-0.7-3.8-1.5-6-1.5-9c0-3.8,0.8-8.2,2.2-12.8c1.5-4.5,3.8-8.3,8.2-12c7.5-5.2,18-8.2,32.2-8.2C579,249.5,591.8,251,606,254z"/>
<path fill="#00AEEF" d="M709.5,198.5c-3-2.2-6.8-3.8-10.5-5.2s-8.2-2.2-12-2.2c-8.2,0-15.8,2.2-22.5,6.8c-3,2.2-6,4.5-8.2,7.5v-12.8
	H645v129.7h12v-84.7c0-5.2,0.8-9.7,2.2-13.5c1.5-4.5,3.8-7.5,6.8-11.2c3-3,6-5.3,9.8-7.5c6.8-3,14.2-3.8,21-0.8
	c3,0.8,5.2,2.2,8.2,4.5l3.8,2.2l4.5-11.2L709.5,198.5z"/>
<path fill="#00AEEF" d="M727.5,251.8h104.2V248c-0.8-9-2.2-17.2-5.2-24c-3-7.5-6.8-13.5-11.2-18.8c-4.5-5.3-10.5-9-17.3-12
	c-6.8-3-14.2-4.5-21.8-4.5c-9,0-17.2,1.5-24,5.2c-7.5,3-13.5,8.2-18.8,13.5c-5.2,6-9.8,12.8-12,21c-3,8.2-4.5,17.2-4.5,26.2
	c0,9.7,1.5,18.7,4.5,26.2c3,8.3,6.8,15,12,21c5.2,6,12,10.5,18.8,13.5c7.5,3,15.8,4.5,24,4.5c9.8,0,18.8-1.5,27-4.5
	c8.2-3,15.8-7.5,21.8-12.8l2.2-2.2l-7.5-8.3l-2.2,2.2c-5.2,4.5-11.2,8.2-18,10.5s-14.2,3.8-23.2,3.8c-7.5,0-13.5-1.5-19.5-3.8
	c-6-3-11.2-6.8-15-11.2c-4.5-4.5-7.5-10.5-9.8-17.2c-2.3-6.8-3.8-14.2-3.8-22.5L727.5,251.8C727.5,252.5,727.5,252.5,727.5,251.8z
	 M729.8,240.5c1.5-5.2,3-9.8,5.2-13.5c3-5.2,6-9.7,10.5-13.5c3.8-3.8,9-6.8,14.2-9c5.2-2.2,11.2-3,17.3-3c6.8,0,12.7,1.5,18,3.8
	c5.2,2.2,9.8,5.2,12.8,9c3.8,3.8,6,8.2,8.2,13.5c1.5,3.8,3,8.2,3.8,12.8L729.8,240.5L729.8,240.5z"/>
<path fill="#00AEEF" d="M936,272c-2.2-4.5-5.2-7.5-9-10.5s-7.5-4.5-12-6c-4.5-1.5-8.2-3-12.8-3.8l-8.2-2.2c-3-0.8-6-1.5-9.8-3
	c-3-0.8-6-2.2-8.2-4.5c-2.2-1.5-4.5-3.8-6-6.7c-1.5-3-2.2-6.8-2.2-11.2c0-3.8,0.7-6.8,2.2-9.8c1.5-3,3.8-5.2,6.8-6.8s6-3,9.8-4.5
	c3.8-0.8,7.5-1.5,11.2-1.5c6,0,12,0.8,16.5,2.2c4.5,1.5,9.8,4.5,14.2,7.5l3,2.2l6.8-9l-2.3-2.2c-5.2-4.5-11.2-7.5-18-9.8
	c-6-2.2-12.7-3-20.2-3c-4.5,0-9.8,0.8-14.3,2.2c-4.5,1.5-9,3.8-13.5,6c-3.8,3-7.5,6.7-9.8,10.5c-2.3,4.5-3.8,9.8-3.8,15
	c0,6.8,1.5,12.8,3.8,16.5c2.2,4.5,5.2,7.5,9,10.5c3.8,2.2,7.5,4.5,11.2,6c3.8,1.5,7.5,2.2,10.5,3l7.5,2.2c3.8,1.5,7.5,2.2,11.2,3.8
	s6.8,3,9,4.5c2.2,1.5,4.5,3.8,6,6.8s2.3,6.8,2.3,11.2c0,3.8-0.8,7.5-3,10.5c-1.5,3-4.5,5.2-7.5,6.8c-3,1.5-6.8,3-10.5,3.8
	c-11.2,2.2-22.5,1.5-32.2-3c-6.8-3-12-6.8-17.2-11.2l-2.3-2.2l-7.5,9l2.3,2.2c6,6,13.5,10.5,21,13.5c7.5,3,16.5,4.5,24.8,4.5
	c4.5,0,9.8-0.8,15-1.5c5.2-1.5,9.8-3,13.5-5.3c4.5-3,7.5-6,10.5-10.5c3-4.5,4.5-9.8,4.5-16.5C939.8,281.8,938.2,276.5,936,272z"/>
<g>
	<polygon fill="#00365F" points="963.8,323.8 1098,323.8 1213.5,218.4 1329,113.8 1194.8,113.8 1079.2,218.4 	"/>
	<polygon fill="#00AEEF" points="1329,323.8 1194.8,323.8 963.8,113.8 1098,113.8 	"/>
	<polygon fill="#00365F" points="1213.5,218.4 1098,323.8 963.8,323.8 1079.2,218.4 	"/>
</g>
</svg>
