<?xml version="1.0" encoding="utf-8"?>
<!-- Generator: Adobe Illustrator 16.0.0, SVG Export Plug-In . SVG Version: 6.00 Build 0)  -->
<!DOCTYPE svg PUBLIC "-//W3C//DTD SVG 1.1//EN" "http://www.w3.org/Graphics/SVG/1.1/DTD/svg11.dtd">
<svg version="1.1" id="Layer_1" xmlns="http://www.w3.org/2000/svg" xmlns:xlink="http://www.w3.org/1999/xlink" x="0px" y="0px"
	 width="100px" height="100px" viewBox="0 0 100 100" enable-background="new 0 0 100 100" xml:space="preserve">
<path fill-rule="evenodd" clip-rule="evenodd" fill="#FF6666" d="M238.47,125l30.54,30.544c1.986,1.987,1.986,5.202,0,7.183
	l-10.783,10.783c-1.986,1.986-5.196,1.986-7.183,0l-30.55-30.545l-30.539,30.545c-1.986,1.986-5.205,1.986-7.182,0l-10.783-10.783
	c-1.986-1.98-1.986-5.195,0-7.183L202.529,125L171.99,94.455c-1.986-1.986-1.986-5.2,0-7.182l10.783-10.783
	c1.977-1.986,5.195-1.986,7.182,0l30.539,30.544l30.55-30.544c1.986-1.986,5.196-1.986,7.183,0l10.783,10.783
	c1.986,1.981,1.986,5.195,0,7.182L238.47,125z"/>
<path fill="#FF6666" d="M61.204,50.211l37.915-37.916c1.174-1.174,1.174-3.081,0-4.255L92.74,1.661c-1.18-1.177-3.084-1.177-4.259,0
	L50.214,39.929L11.519,1.097c-1.175-1.177-3.079-1.177-4.258,0L0.881,7.477c-1.175,1.177-1.175,3.081,0,4.258l37.915,38.052
	L0.881,87.704c-1.174,1.174-1.174,3.08,0,4.254l6.379,6.379c1.18,1.178,3.084,1.178,4.259,0l38.267-38.269L88.482,98.9
	c1.174,1.178,3.078,1.178,4.258,0l6.379-6.379c1.174-1.178,1.174-3.082,0-4.258L61.204,50.211z"/>
<path fill-rule="evenodd" clip-rule="evenodd" fill="#FFFFFF" d="M22.488,124.026L7.454,139.061c-0.378,0.377-0.989,0.377-1.367,0
	l-0.303-0.304l-0.001,0.002l-0.328-0.33l-1.418-1.419c-0.01-0.01-0.012-0.021-0.021-0.031l-12.961-13.01
	c-0.377-0.377-0.377-0.989,0-1.367l2.049-2.05c0.379-0.377,0.99-0.377,1.367,0l12.308,12.351l12.294-12.294
	c0.377-0.377,0.988-0.377,1.366,0l2.05,2.051C22.865,123.036,22.865,123.649,22.488,124.026z"/>
</svg>
